<?xml version="1.0" encoding="UTF-8"?>
<!DOCTYPE svg PUBLIC "-//W3C//DTD SVG 1.1//EN" "http://www.w3.org/Graphics/SVG/1.1/DTD/svg11.dtd">
<!-- Creator: CorelDRAW X7 -->
<svg xmlns="http://www.w3.org/2000/svg" xml:space="preserve" width="480px" height="117px" version="1.1" style="shape-rendering:geometricPrecision; text-rendering:geometricPrecision; image-rendering:optimizeQuality; fill-rule:evenodd; clip-rule:evenodd"
viewBox="0 0 4628 1128"
 xmlns:xlink="http://www.w3.org/1999/xlink">
 <defs>
  <style type="text/css">
   <![CDATA[
    .fil0 {fill:#8C271F}
    .fil1 {fill:#8C271F;fill-rule:nonzero}
   ]]>
  </style>
 </defs>
 <g id="Слой_x0020_1">
  <metadata id="CorelCorpID_0Corel-Layer"/>
  <g id="_1924859438144">
   <path class="fil0" d="M310 1015c-2,25 -2,48 -2,73 23,-22 46,-38 74,-51 -8,-11 -12,-40 -12,-55 -6,-2 -14,-5 -21,-14 1,-15 4,-31 9,-47 -13,10 -20,29 -27,48 0,1 -11,36 -21,46zm54 -110c10,-22 24,-44 42,-61 2,-3 19,-18 22,-26 3,-9 0,-17 -3,-21 -9,-9 -18,-19 -18,-33 0,-25 30,-54 53,-63 1,4 -1,6 -6,8 -10,18 2,48 17,57 -10,-31 9,-67 14,-76 7,-14 12,-26 16,-41 -10,13 -25,24 -38,33 -19,13 -38,22 -52,37 -23,23 -20,42 -28,85 -3,18 -8,32 -23,43 -2,12 -8,24 -14,35 -21,38 -30,78 -34,120 3,-3 6,-12 10,-24 9,-28 16,-56 42,-73zm140 -271c5,-32 -2,-64 -27,-94 -13,-15 -48,-39 -67,-49 -26,-12 -53,-24 -74,-44 -19,-19 -34,-45 -44,-73 -6,-18 -10,-34 -12,-47 -3,-26 -1,-46 1,-67 12,1 17,15 32,14 -1,-8 -6,-12 -10,-17 -15,-8 -17,-16 -28,-26 -8,-8 -19,-14 -18,-5 1,6 9,13 9,19 -4,-3 -17,-14 -16,-22 1,-5 -6,-11 -8,-11 -5,3 -8,5 -10,5 -1,1 -3,1 -5,1 2,-2 3,-3 4,-5 -5,1 -9,-8 -11,-12 -5,-7 -7,-11 -14,-17 -4,-4 -18,-12 -23,-19 -4,-5 -3,-11 4,-11l-2 -2c-6,-3 -18,-6 -19,5 -1,14 9,21 18,31 4,5 9,14 15,23 5,7 9,15 14,24 5,9 9,16 15,20 2,38 -6,76 -11,115 -4,45 -23,99 -22,152 2,40 23,101 37,144 5,15 8,27 11,45 3,17 2,33 7,50 6,21 14,44 19,66 8,41 9,74 8,116 0,47 -13,80 -50,112 2,4 5,7 7,11l5 -9 0 0c3,-4 10,-13 24,-25 6,-4 23,-15 39,-18 1,-10 2,-21 4,-31 -6,-62 -8,-124 -7,-185 0,-15 3,-28 1,-43 -1,-18 -5,-32 -6,-53 -2,-32 -2,-63 1,-91 -17,-15 -27,-33 -31,-53 -2,-8 -3,-20 -3,-29 8,5 20,12 36,18 34,12 79,26 83,45 2,15 -25,19 -21,28 -16,28 -24,53 -22,88 2,44 24,78 24,128 0,0 0,1 0,2 18,-19 14,-49 17,-74 2,-24 8,-41 20,-53 24,-23 58,-31 85,-55 8,-8 17,-16 21,-22zm-203 -384c0,0 0,-1 -1,-2 -6,-17 -8,-24 -15,-33 -2,-2 -5,-5 -7,-7 25,-6 49,4 63,30 14,25 0,67 0,114 0,38 13,85 63,89 -75,-24 -40,-122 -38,-168 2,-31 -9,-54 -22,-64 45,15 60,78 63,120 3,54 4,136 74,151 -75,-40 -48,-140 -65,-208 -9,-34 -29,-63 -60,-81 -28,-16 -68,-18 -98,-7 -5,-4 -13,-8 -20,-11 -7,-2 -16,-4 -23,-6 -9,-3 -13,-5 -19,-8 -1,-1 -4,-2 -7,-2 -6,1 -1,8 2,10 9,6 13,10 26,15 8,2 17,6 23,10 4,2 10,9 13,10 1,0 5,-3 6,-5 1,7 -4,10 -8,11 -3,1 -2,3 -1,4 2,1 4,2 7,1 8,-1 17,6 21,11 3,3 6,7 9,10 2,5 10,14 14,16zm71 347c2,-7 -5,-13 -15,-19 -15,-9 -34,-13 -51,-18 -13,-4 -24,-9 -36,-16 0,5 0,11 1,16 6,26 20,42 31,48 14,1 37,3 49,7 4,-10 19,-10 21,-18zm-133 477c11,17 22,36 32,54 8,-9 16,-19 25,-28 2,-26 3,-52 5,-78 -9,0 -26,10 -34,16 -11,9 -16,14 -21,23l-7 13zm-17 -28l0 0c-38,-65 -95,-144 -157,-197 9,-7 12,-11 21,-19 17,-15 39,-33 62,-44 32,-17 60,-23 88,-25l11 34c-34,2 -57,14 -74,28 -40,32 -34,83 -1,120 23,25 54,47 82,62 -5,15 -19,32 -32,41zm-169 -207c-18,-14 -35,-25 -53,-33 66,-43 167,-161 159,-304 -3,-50 -17,-81 -25,-122 -6,-33 -9,-63 -9,-95 4,-1 14,-3 18,-3 -3,53 13,111 52,150 -11,34 -20,82 -10,123 -5,102 -43,209 -123,276 -4,4 -9,8 -9,8zm72 -562c2,-103 41,-200 141,-277 -9,54 5,103 46,170 -5,-1 -13,-1 -19,0 -12,-32 -39,-96 -87,-80 -34,11 -53,71 -51,105 1,40 33,54 64,70 0,7 0,20 -1,26 -23,-9 -70,-24 -93,-14zm444 570l0 0c-24,-39 -51,-64 -83,-94 23,2 38,-5 52,-21 56,-62 -37,-200 -79,-249 6,3 14,6 21,7 68,87 147,238 147,399 0,42 -6,78 -18,108 -3,-7 -7,-17 -8,-21 6,-46 -10,-93 -32,-129zm31 169c-5,-2 -10,-4 -15,-6 -7,-23 -12,-35 -27,-60 -36,-60 -94,-102 -131,-117 4,-3 8,-7 9,-14 2,-7 2,-14 0,-18 46,30 82,64 110,102 10,14 51,81 54,113zm-34 -11c-57,-12 -130,3 -175,28 -9,-13 -11,-34 -12,-50 37,-6 135,-6 185,9l2 13zm-256 -210l0 0c2,-12 2,-25 2,-34 6,0 10,1 25,8 3,9 6,23 8,34 -14,-6 -19,-7 -35,-8zm55 -429c0,-8 1,-15 2,-23 14,15 28,32 37,44 1,9 3,17 6,27 -14,-19 -30,-35 -45,-48zm-77 -49l0 0c-1,-7 -1,-21 0,-28 17,8 34,23 46,32 -1,10 -1,15 -1,24 -12,-8 -27,-18 -45,-28z"/>
   <path class="fil1" d="M511 149l-7 0 0 -61 22 0c2,0 3,0 5,1 1,0 2,0 3,0l0 0c2,0 3,0 5,1 1,0 2,0 3,1l0 0c2,1 3,2 4,3 1,1 2,2 2,3l0 0c1,1 2,3 2,4 0,1 1,3 1,5 0,1 -1,3 -1,5 -1,2 -1,3 -2,5l0 0c-1,1 -2,2 -4,3 0,0 0,0 0,1 0,0 0,0 0,0 1,1 2,2 3,3l0 0c0,1 0,2 1,4 0,1 0,3 1,5l0 1 0 8 0 0c0,1 0,1 0,2 0,0 1,0 1,1l0 0 0 0c0,0 0,0 0,1 0,0 0,0 0,0l1 1 0 3 -9 0 -1 -1c0,0 0,-1 0,-1 -1,-1 -1,-1 -1,-2l0 0c0,0 0,-1 0,-1 0,-1 0,-2 0,-2l0 0 -1 -8 0 0c0,-2 0,-4 -1,-6 0,-1 -1,-2 -1,-2 -1,-1 -2,-1 -3,-1 -1,-1 -3,-1 -5,-1l-16 0 0 25 -2 0zm2 -52l0 18 14 0c3,0 5,0 7,0 1,-1 3,-1 4,-2l0 0c1,-1 2,-2 2,-3 1,-1 1,-2 1,-4 0,-1 0,-2 0,-2 -1,-1 -1,-2 -1,-2l0 0c0,-1 -1,-1 -1,-2 -1,0 -1,-1 -2,-1l0 0c0,0 -1,-1 -2,-1 0,0 -1,0 -2,-1 -1,0 -1,0 -2,0 -1,0 -3,0 -4,0l-14 0z"/>
   <path class="fil1" d="M526 67c15,0 28,6 37,16 9,9 15,22 15,36 0,14 -6,27 -15,37 -9,9 -22,15 -37,15 -14,0 -27,-6 -36,-15 -10,-10 -15,-23 -15,-37 0,-14 5,-27 15,-36 9,-10 22,-16 36,-16zm30 22c-7,-8 -18,-12 -30,-12 -11,0 -22,4 -30,12 -7,8 -12,18 -12,30 0,12 5,23 12,30 8,8 19,13 30,13 12,0 23,-5 30,-13 8,-7 13,-18 13,-30 0,-12 -5,-22 -13,-30z"/>
   <path class="fil0" d="M4513 412l51 0 -1 -44c0,-16 0,-29 0,-39 0,-8 0,-16 0,-25l-2 0 -48 108 0 0zm52 21l-62 0 -2 5c-2,5 -4,9 -6,13 -2,4 -3,8 -5,12 -1,4 -2,8 -3,11 0,4 0,7 0,10 0,8 4,14 13,15l-2 12 -67 0 3 -12c3,-1 7,-3 9,-5 3,-2 6,-6 8,-10 3,-4 6,-10 11,-20l97 -205 45 0 7 196c0,8 1,14 1,18 1,4 1,8 2,11 1,3 2,6 3,8 1,2 3,4 5,5 2,1 4,2 6,2l-2 12 -81 0 2 -12c5,0 8,-2 11,-4 3,-3 5,-6 6,-10 1,-4 1,-10 1,-17 0,-6 0,-11 0,-17l0 -18 0 0zm-198 -52c25,7 37,24 37,51 0,24 -7,43 -23,59 -16,15 -39,23 -69,23 -20,0 -40,-4 -60,-11l10 -55 20 0c0,17 3,28 8,35 5,7 13,10 25,10 13,0 23,-6 31,-18 7,-13 11,-28 11,-48 0,-23 -11,-34 -32,-34l-29 0 5 -25 26 0c19,0 32,-6 39,-19 7,-13 10,-26 10,-39 0,-22 -8,-32 -23,-32 -19,0 -33,14 -44,42l-21 0 10 -52c26,-8 47,-11 62,-11 21,0 37,4 48,13 11,9 17,22 17,38 0,36 -19,60 -58,71l0 2 0 0zm-182 80c0,4 -1,6 -1,8 0,2 0,4 0,6 0,2 -1,5 -1,8 0,5 1,9 3,11 3,3 6,4 10,5l-2 12 -79 0 3 -12c4,-2 7,-4 10,-6 2,-3 4,-6 6,-11 1,-5 3,-12 5,-21l13 -70 -66 0 -14 70c0,4 -1,6 -1,8 0,2 0,4 0,6 0,2 -1,5 -1,8 0,5 1,9 3,11 2,3 6,4 10,5l-2 12 -79 0 3 -12c4,-2 7,-4 10,-6 2,-3 4,-6 6,-11 1,-5 3,-12 5,-21l28 -151c2,-8 2,-15 2,-22 0,-5 -1,-9 -3,-11 -2,-3 -5,-4 -10,-5l2 -12 79 0 -2 12c-4,2 -8,4 -10,6 -2,3 -4,6 -6,11 -2,5 -3,12 -5,21l-11 58 66 0 11 -58c2,-8 2,-15 2,-22 0,-5 -1,-9 -3,-11 -2,-3 -5,-4 -10,-5l3 -12 78 0 -2 12c-4,2 -8,4 -10,6 -2,3 -4,6 -6,11 -2,5 -3,12 -5,21l-29 151 0 0zm-361 -17c0,17 3,30 7,37 4,8 11,11 20,11 5,0 10,-1 14,-4 6,-3 12,-8 17,-15 6,-8 12,-19 18,-32 5,-13 10,-28 13,-43 3,-13 6,-28 8,-44 1,-10 2,-19 2,-28 0,-16 -2,-28 -6,-36 -5,-8 -12,-11 -21,-11 -9,0 -18,4 -27,14 -8,9 -16,23 -23,40 -7,17 -12,37 -16,58 -4,22 -6,39 -6,53l0 0zm25 70c-23,0 -41,-7 -53,-22 -13,-15 -19,-36 -19,-65 0,-9 1,-20 3,-33 2,-13 4,-26 8,-40 4,-14 10,-27 17,-39 7,-12 15,-23 24,-32 10,-9 20,-15 32,-19 12,-5 24,-7 36,-7 24,0 42,7 55,22 12,14 18,36 18,64 0,11 -1,24 -3,39 -2,14 -6,29 -11,43 -5,15 -11,28 -18,39 -7,11 -15,21 -24,28 -10,8 -20,13 -30,17 -11,3 -22,5 -35,5l0 0zm-201 -129c10,0 19,-1 26,-4 6,-3 12,-7 17,-13 4,-6 8,-13 10,-22 2,-8 4,-18 4,-28 0,-12 -3,-21 -8,-27 -5,-6 -13,-10 -23,-10 -6,0 -11,1 -15,1l-19 103 8 0 0 0zm28 -125c11,0 20,0 25,1 8,1 15,3 22,6 6,3 12,6 16,11 4,5 8,11 10,17 2,7 3,14 3,23 0,14 -2,26 -6,37 -4,11 -11,20 -18,28 -8,8 -18,14 -31,18 -12,4 -26,6 -41,6l-4 0c-7,0 -12,-1 -16,-1l-11 55c-1,4 -1,8 -1,11 -1,2 -1,6 -1,11 0,6 1,10 4,12 2,2 6,4 11,4l-2 12 -81 0 2 -12c5,-2 8,-4 10,-6 3,-3 5,-6 6,-11 2,-5 4,-12 5,-21l29 -151c1,-8 2,-15 2,-22 0,-5 -1,-9 -3,-11 -2,-3 -5,-4 -10,-5l2 -12 78 0 0 0zm-265 129l-19 100c6,0 11,1 16,1 15,0 26,-3 33,-7 8,-4 13,-12 18,-23 5,-10 7,-22 7,-35 0,-25 -10,-37 -32,-37 -8,0 -15,0 -23,1l0 0zm20 -107l-16 85c16,-2 28,-3 37,-3 41,0 62,20 62,59 0,27 -8,49 -24,65 -16,15 -40,23 -72,23l-90 0 2 -12c6,-2 11,-6 14,-11 2,-6 4,-13 6,-23l30 -159c1,-6 2,-12 2,-16 0,-11 -5,-17 -14,-18l3 -12 160 0 -12 62 -20 0c0,-17 -2,-28 -6,-33 -3,-5 -10,-7 -20,-7l-42 0 0 0zm-354 102l19 -102 -8 -1c-22,-1 -37,6 -45,19 -8,14 -11,29 -11,45 0,26 10,39 30,39l15 0 0 0zm-36 115c6,-2 11,-5 13,-10 3,-6 6,-13 7,-24l12 -59 -6 0c-11,0 -20,3 -27,11 -7,8 -17,25 -30,53 -7,14 -13,24 -17,32l-2 9 -62 0 2 -12c8,-1 18,-13 31,-35l11 -23c12,-22 26,-37 44,-44l0 -2c-21,-8 -31,-26 -31,-52 0,-24 7,-44 22,-60 14,-15 36,-23 64,-23l89 0 -3 12c-5,2 -9,5 -12,9 -3,5 -6,13 -8,25l-30 159c-1,6 -2,11 -2,16 0,11 5,17 14,18l-2 12 -79 0 2 -12 0 0zm-257 -87l51 0 -1 -44c0,-16 0,-29 0,-39 0,-8 0,-16 0,-25l-2 0 -48 108 0 0zm51 21l-61 0 -2 5c-2,5 -4,9 -6,13 -2,4 -3,8 -5,12 -1,4 -2,8 -3,11 0,4 -1,7 -1,10 0,8 5,14 14,15l-3 12 -66 0 3 -12c3,-1 7,-3 9,-5 3,-2 6,-6 8,-10 3,-4 6,-10 11,-20l97 -205 45 0 7 196c0,8 0,14 1,18 1,4 1,8 2,11 1,3 2,6 3,8 1,2 3,4 5,5 2,1 4,2 6,2l-2 12 -81 0 2 -12c5,0 8,-2 11,-4 3,-3 4,-6 5,-10 2,-4 2,-10 2,-17 0,-6 0,-11 0,-17l-1 -18 0 0zm-229 78l2 -9c-7,-53 -12,-84 -16,-94 -4,-11 -13,-16 -26,-16l-3 0 -13 73c-2,6 -2,11 -2,16 0,11 4,17 14,18l-3 12 -78 0 2 -12c6,-2 10,-5 13,-10 3,-5 5,-13 7,-24l30 -159c1,-6 2,-12 2,-16 0,-11 -5,-17 -14,-18l3 -12 79 0 -3 12c-6,2 -10,5 -13,9 -3,5 -5,13 -8,25l-12 66 3 0c11,0 20,-4 28,-13 9,-8 17,-21 24,-38 12,-25 23,-42 32,-51 9,-9 22,-13 37,-13 9,0 17,1 22,4l-8 46 -20 0c0,-12 -4,-17 -11,-17 -5,0 -9,2 -13,7 -4,5 -10,16 -18,32 -13,24 -24,40 -35,46l0 2c9,3 17,6 22,11 4,5 8,11 10,18 2,8 5,20 8,38 3,22 6,37 9,43 3,7 7,11 12,12l-2 12 -61 0 0 0zm-136 -245l-10 54 -20 0c0,-11 -1,-19 -3,-25 -2,-5 -4,-10 -7,-12 -4,-3 -8,-4 -14,-4 -5,0 -9,1 -14,3 -5,2 -10,6 -15,11 -5,6 -11,14 -15,23 -5,10 -10,21 -14,33 -3,10 -6,21 -9,34 -2,12 -4,24 -5,35 -1,10 -2,19 -2,28 0,10 1,19 3,25 1,7 4,12 8,16 4,4 10,5 17,5 8,0 14,-1 20,-4 5,-3 10,-8 14,-14 4,-6 8,-14 12,-24l21 0 -10 54c-11,4 -21,6 -31,8 -10,1 -20,2 -32,2 -22,0 -39,-7 -51,-21 -12,-15 -18,-35 -18,-62 0,-8 1,-18 2,-28 2,-17 5,-32 10,-47 5,-17 11,-32 19,-44 7,-13 16,-23 25,-31 10,-8 20,-14 31,-18 11,-4 23,-6 36,-6 9,0 18,1 27,2 9,2 17,4 25,7l0 0zm-311 119c10,0 19,-1 26,-4 7,-3 12,-7 17,-13 4,-6 8,-13 10,-22 3,-8 4,-18 4,-28 0,-12 -3,-21 -8,-27 -5,-6 -12,-10 -23,-10 -6,0 -11,1 -15,1l-19 103 8 0 0 0zm29 -125c11,0 19,0 25,1 7,1 15,3 21,6 6,3 12,6 16,11 5,5 8,11 10,17 3,7 4,14 4,23 0,14 -2,26 -7,37 -4,11 -10,20 -18,28 -8,8 -18,14 -30,18 -13,4 -26,6 -42,6l-4 0c-6,0 -12,-1 -16,-1l-11 55c0,4 -1,8 -1,11 0,2 -1,6 -1,11 0,6 2,10 4,12 3,2 6,4 12,4l-3 12 -81 0 3 -12c4,-2 7,-4 10,-6 2,-3 4,-6 6,-11 1,-5 3,-12 5,-21l28 -151c2,-8 2,-15 2,-22 0,-5 -1,-9 -3,-11 -2,-3 -5,-4 -10,-5l2 -12 79 0 0 0zm-287 184c0,17 2,30 7,37 4,8 11,11 20,11 5,0 10,-1 14,-4 6,-3 12,-8 17,-15 6,-8 12,-19 18,-32 5,-13 10,-28 13,-43 3,-13 6,-28 8,-44 1,-10 2,-19 2,-28 0,-16 -2,-28 -7,-36 -4,-8 -11,-11 -20,-11 -9,0 -18,4 -27,14 -8,9 -16,23 -23,40 -7,17 -12,37 -16,58 -4,22 -6,39 -6,53l0 0zm25 70c-24,0 -42,-7 -54,-22 -12,-15 -18,-36 -18,-65 0,-9 1,-20 3,-33 1,-13 4,-26 8,-40 4,-14 10,-27 17,-39 7,-12 15,-23 24,-32 10,-9 20,-15 32,-19 11,-5 24,-7 36,-7 24,0 42,7 54,22 13,14 19,36 19,64 0,11 -1,24 -3,39 -3,14 -6,29 -11,43 -5,15 -11,28 -18,39 -7,11 -15,21 -24,28 -10,8 -20,13 -30,17 -11,3 -23,5 -35,5l0 0zm-194 -3l-81 0 2 -12c6,-2 11,-6 14,-11 2,-5 5,-13 6,-23l30 -159c2,-6 2,-12 2,-16 0,-11 -4,-17 -13,-18l2 -12 147 0 -13 69 -18 0c0,-19 -1,-32 -5,-38 -3,-6 -9,-9 -19,-9l-32 0 -34 183c-1,6 -2,11 -2,16 0,11 5,17 16,18l-2 12 0 0zm-163 -46c-1,6 -2,11 -2,16 0,9 5,15 14,18l-2 12 -79 0 2 -12c7,-2 11,-5 13,-9 3,-4 5,-12 8,-25l12 -69c4,-20 8,-37 11,-49l-1 0 -93 118c-2,6 -2,11 -2,15 0,12 4,18 13,19l-2 12 -79 0 3 -12c6,-2 11,-6 14,-11 2,-5 4,-13 6,-23l30 -159c1,-6 2,-12 2,-16 0,-11 -5,-17 -14,-18l2 -12 79 0 -2 12c-6,2 -10,5 -13,10 -3,4 -5,12 -8,24l-14 79c-4,17 -6,29 -8,36l1 0 93 -119c1,-5 2,-10 2,-13 0,-10 -5,-15 -14,-17l2 -12 79 0 -3 12c-5,1 -9,4 -12,8 -3,3 -5,12 -8,26l-30 159 0 0zm-207 -205l-12 66 -20 0c0,-13 -1,-23 -2,-28 -1,-6 -3,-10 -6,-12 -3,-3 -7,-5 -12,-5l-14 0 -34 180c0,4 -1,6 -1,8 0,2 0,4 0,6 0,2 -1,5 -1,8 0,6 2,10 4,12 3,2 6,4 12,4l-3 12 -83 0 2 -12c5,-1 9,-2 11,-5 3,-2 5,-6 7,-11 2,-5 4,-12 6,-22l33 -180 -12 0c-4,0 -7,1 -10,2 -3,1 -5,2 -7,3 -1,2 -4,4 -6,7 -2,3 -4,6 -7,11 -3,5 -6,11 -9,19l-20 0 12 -63 172 0 0 0zm-310 124l20 -102 -9 -1c-22,-1 -36,6 -44,19 -8,14 -12,29 -12,45 0,26 11,39 31,39l14 0 0 0zm-35 115c6,-2 10,-5 13,-10 3,-6 5,-13 7,-24l12 -59 -6 0c-12,0 -21,3 -27,11 -7,8 -17,25 -31,53 -6,14 -12,24 -16,32l-2 9 -63 0 3 -12c8,-1 18,-13 30,-35l12 -23c11,-22 26,-37 43,-44l1 -2c-21,-8 -32,-26 -32,-52 0,-24 8,-44 23,-60 14,-15 36,-23 64,-23l89 0 -3 12c-5,2 -10,5 -12,9 -3,5 -6,13 -8,25l-30 159c-1,6 -2,11 -2,16 0,11 5,17 14,18l-2 12 -79 0 2 -12 0 0zm-124 -227c-5,2 -10,5 -13,9 -3,4 -5,12 -8,25l-30 159c-1,6 -2,12 -2,17 0,10 5,15 14,17l-2 12 -79 0 2 -12c6,-2 11,-5 13,-9 3,-4 5,-12 8,-25l34 -182 -64 0 -34 182c-1,6 -2,11 -2,16 0,11 5,17 14,18l-2 12 -79 0 2 -12c6,-2 11,-5 14,-10 2,-5 5,-13 7,-24l30 -159c1,-6 2,-12 2,-16 0,-11 -5,-17 -14,-18l2 -12 189 0 -2 12 0 0z"/>
   <path class="fil0" d="M3959 758l12 -6 31 51 -3 14 -50 48 -10 -10 36 -48 -16 -49 0 0zm51 0l12 -6 31 51 -3 14 -50 48 -10 -10 35 -48 -15 -49 0 0zm-140 36c1,-3 1,-6 2,-9 0,-3 0,-7 0,-10 0,-5 -1,-9 -3,-12 -2,-3 -5,-4 -9,-4 -8,0 -14,3 -20,11 -5,8 -10,19 -13,32 -4,13 -6,25 -6,35 0,7 1,11 3,14 2,3 4,5 8,5 5,0 10,-3 16,-8 5,-6 9,-12 13,-20 3,-7 6,-17 8,-29l1 -5 0 0zm18 -40l11 -9 13 2 -18 88c-1,4 -2,8 -2,11 -1,2 -1,5 -1,6 0,4 1,7 3,9 1,1 4,2 9,3l-1 8 -46 0 7 -26 -2 0c-5,7 -10,13 -15,17 -4,4 -9,7 -13,9 -5,1 -10,2 -16,2 -5,0 -10,-1 -14,-4 -4,-3 -8,-7 -10,-13 -2,-6 -4,-14 -4,-23 0,-9 1,-18 3,-27 2,-9 5,-17 9,-25 4,-7 8,-14 14,-20 6,-5 12,-9 19,-12 8,-3 16,-5 24,-5 12,0 22,3 30,9l0 0zm-148 118l-49 0 14 -68c3,-10 4,-17 4,-20 1,-4 1,-7 1,-9 0,-4 -1,-7 -2,-8 -2,-2 -4,-3 -7,-3 -2,0 -5,1 -8,3 -3,2 -6,5 -10,9 -4,4 -7,9 -9,14 -2,5 -4,11 -5,18l-13 64 -34 0 19 -89c0,-2 0,-4 1,-8 1,-4 1,-7 1,-10 0,-3 -1,-6 -3,-7 -1,-1 -4,-2 -8,-2l2 -9 32 -1 12 0 -6 27 1 1c5,-7 10,-13 15,-17 5,-4 9,-7 14,-9 5,-2 10,-3 15,-3 8,0 15,3 19,8 5,5 7,11 7,20 0,5 -1,12 -2,19l-10 47c-1,3 -1,6 -1,8 -1,3 -1,4 -1,6 0,4 1,6 3,8 2,1 5,2 9,3l-1 8 0 0zm-230 -34c0,7 1,13 3,17 3,4 7,6 12,6 3,0 6,-1 8,-2 3,-1 5,-3 8,-7 3,-3 5,-7 7,-12 2,-4 4,-10 6,-17 1,-7 3,-14 4,-21 1,-7 1,-13 1,-19 0,-8 -1,-15 -3,-19 -3,-4 -6,-5 -11,-5 -7,0 -13,3 -17,10 -5,7 -9,17 -13,31 -3,15 -5,27 -5,38l0 0zm12 36c-9,0 -16,-2 -23,-5 -6,-3 -11,-8 -15,-15 -4,-7 -6,-15 -6,-25 0,-3 0,-7 1,-12 1,-6 2,-11 3,-17 2,-7 4,-13 7,-19 3,-6 6,-11 10,-15 4,-5 9,-8 13,-11 5,-3 10,-5 15,-7 7,-2 13,-3 20,-3 10,0 18,2 25,6 7,4 11,9 15,16 3,7 4,15 4,24 0,11 -1,22 -5,33 -3,11 -8,20 -14,28 -6,8 -13,13 -22,17 -8,3 -17,5 -28,5l0 0zm-116 -110c-7,0 -13,4 -18,11 -5,8 -12,24 -21,50 -7,19 -14,32 -20,39 -7,7 -16,10 -26,10 -7,0 -14,-1 -20,-3l7 -32 12 0c0,10 2,14 6,14 9,0 18,-12 27,-37 11,-31 21,-51 28,-58 8,-7 17,-11 27,-11l40 0 -19 89c-1,8 -2,14 -2,18 0,3 1,6 2,7 2,1 5,2 9,3l-2 8 -47 0 22 -108 -5 0 0 0zm-244 -17l49 0 -15 69c-2,10 -3,16 -4,20 0,4 0,6 0,9 0,3 0,6 2,8 1,2 3,3 6,3 2,0 3,-1 5,-1 2,-1 4,-2 6,-4 1,-2 4,-4 6,-6 3,-3 5,-6 7,-9 2,-3 4,-7 5,-10 1,-4 2,-9 4,-14l12 -65 34 0 -18 89c-1,2 -1,5 -2,9 0,3 -1,7 -1,9 0,4 1,6 3,7 2,2 5,2 9,3l-2 8 -45 0 7 -26 -2 0c-7,10 -14,17 -21,21 -7,5 -14,7 -23,7 -8,0 -14,-2 -19,-7 -4,-5 -7,-12 -7,-20 0,-5 1,-12 3,-20l9 -46c1,-4 2,-7 2,-9 0,-2 0,-4 0,-5 0,-4 -1,-7 -2,-8 -2,-2 -5,-3 -9,-3l1 -9 0 0zm-118 24c6,-9 13,-15 20,-19 6,-4 14,-7 22,-7 8,0 15,3 19,8 5,5 7,11 7,20 0,5 -1,12 -2,19l-10 47c-1,3 -1,6 -2,8 0,3 0,4 0,6 0,4 1,6 3,8 1,1 4,2 9,3l-2 8 -49 0 17 -75c1,-4 1,-8 2,-10 0,-3 0,-5 1,-7 0,-1 0,-3 0,-5 0,-3 -1,-6 -2,-8 -2,-2 -4,-3 -7,-3 -2,0 -5,1 -8,3 -3,2 -6,5 -10,9 -4,5 -6,9 -9,14 -2,5 -4,11 -5,18l-13 64 -34 0 17 -79c1,-3 2,-6 2,-8 0,-2 0,-3 0,-5 1,-1 1,-3 1,-4 0,-4 -1,-7 -2,-9 -2,-2 -4,-3 -7,-3 -4,0 -8,2 -13,7 -6,6 -10,11 -12,16 -3,5 -6,12 -7,21l-13 64 -34 0 19 -89c0,-2 1,-4 1,-8 1,-4 1,-7 1,-10 0,-3 -1,-6 -3,-7 -1,-1 -4,-2 -8,-2l2 -9 32 -1 12 0 -6 27 1 1c6,-7 11,-13 15,-17 5,-4 9,-7 14,-9 4,-2 10,-3 15,-3 8,0 14,3 19,7 4,5 7,11 7,19l0 0zm-202 45l-36 0 -11 56 -33 0 18 -89c2,-8 3,-14 3,-18 0,-3 -1,-5 -3,-7 -2,-1 -5,-2 -9,-2l2 -9 32 -1 14 0 -10 54 36 0 11 -53 33 0 -18 89c-2,8 -3,14 -3,18 0,3 1,6 3,7 2,1 5,2 9,3l-2 8 -47 0 11 -56 0 0zm-156 -22c1,-3 1,-6 2,-9 0,-3 0,-7 0,-10 0,-5 -1,-9 -3,-12 -2,-3 -5,-4 -9,-4 -8,0 -14,3 -20,11 -6,8 -10,19 -14,32 -3,13 -5,25 -5,35 0,7 1,11 3,14 2,3 4,5 8,5 5,0 10,-3 15,-8 6,-6 10,-12 13,-20 4,-7 7,-17 9,-29l1 -5 0 0zm18 -40l11 -9 13 2 -18 88c-1,4 -2,8 -2,11 -1,2 -1,5 -1,6 0,4 1,7 3,9 1,1 4,2 9,3l-2 8 -45 0 7 -26 -2 0c-5,7 -10,13 -15,17 -4,4 -9,7 -13,9 -5,1 -10,2 -16,2 -5,0 -10,-1 -14,-4 -4,-3 -8,-7 -10,-13 -3,-6 -4,-14 -4,-23 0,-9 1,-18 3,-27 2,-9 5,-17 9,-25 3,-7 8,-14 14,-20 6,-5 12,-9 19,-12 8,-3 16,-5 24,-5 12,0 22,3 30,9l0 0zm-264 54l9 -47c-5,0 -9,-1 -12,-1 -8,0 -14,3 -19,8 -5,5 -8,12 -8,20 0,6 2,11 6,15 4,3 10,5 17,5l7 0 0 0zm-11 12c-8,0 -15,6 -21,17 -6,11 -11,18 -14,23 -3,4 -7,7 -12,10 -5,3 -11,4 -17,4 -8,0 -16,-1 -21,-3l7 -32 11 0c0,10 3,14 7,14 5,0 11,-5 16,-15 7,-11 12,-18 17,-20l0 -1c-17,-5 -25,-15 -25,-31 0,-13 5,-23 16,-30 11,-7 26,-11 45,-11 16,0 31,2 47,5l-18 86c-1,9 -2,15 -2,18 0,3 1,6 2,7 2,1 5,2 9,3l-2 8 -47 0 10 -52 -8 0 0 0zm-144 -26c0,-3 1,-6 1,-9 0,-3 1,-7 1,-10 0,-5 -1,-9 -3,-12 -2,-3 -6,-4 -10,-4 -7,0 -14,3 -20,11 -5,8 -10,19 -13,32 -4,13 -5,25 -5,35 0,7 1,11 2,14 2,3 5,5 8,5 5,0 10,-3 16,-8 5,-6 10,-12 13,-20 3,-7 6,-17 9,-29l1 -5 0 0zm17 -40l11 -9 13 2 -18 88c-1,4 -2,8 -2,11 0,2 -1,5 -1,6 0,4 1,7 3,9 2,1 5,2 9,3l-1 8 -45 0 6 -26 -2 0c-5,7 -10,13 -14,17 -5,4 -10,7 -14,9 -4,1 -10,2 -15,2 -6,0 -11,-1 -15,-4 -4,-3 -7,-7 -10,-13 -2,-6 -3,-14 -3,-23 0,-9 1,-18 3,-27 1,-9 4,-17 8,-25 4,-7 9,-14 14,-20 6,-5 13,-9 20,-12 7,-3 15,-5 24,-5 11,0 21,3 29,9l0 0zm-208 17c7,-9 14,-15 20,-19 7,-4 14,-7 23,-7 8,0 14,3 19,8 4,5 6,11 6,20 0,5 0,12 -2,19l-10 47c0,3 -1,6 -1,8 -1,3 -1,4 -1,6 0,4 1,6 3,8 2,1 5,2 9,3l-1 8 -49 0 16 -75c1,-4 2,-8 2,-10 0,-3 1,-5 1,-7 0,-1 0,-3 0,-5 0,-3 0,-6 -2,-8 -1,-2 -4,-3 -6,-3 -3,0 -6,1 -9,3 -3,2 -6,5 -10,9 -3,5 -6,9 -8,14 -2,5 -4,11 -6,18l-12 64 -34 0 17 -79c0,-3 1,-6 1,-8 1,-2 1,-3 1,-5 0,-1 0,-3 0,-4 0,-4 -1,-7 -2,-9 -2,-2 -4,-3 -7,-3 -3,0 -8,2 -13,7 -5,6 -9,11 -12,16 -3,5 -5,12 -7,21l-13 64 -33 0 18 -89c0,-2 1,-4 2,-8 0,-4 1,-7 1,-10 0,-3 -1,-6 -3,-7 -2,-1 -5,-2 -9,-2l2 -9 32 -1 13 0 -7 27 1 1c6,-7 11,-13 16,-17 4,-4 9,-7 13,-9 5,-2 10,-3 15,-3 8,0 15,3 19,7 5,5 7,11 7,19l0 0zm-237 67c0,7 1,13 3,17 3,4 6,6 11,6 3,0 6,-1 9,-2 2,-1 5,-3 8,-7 2,-3 4,-7 6,-12 2,-4 4,-10 6,-17 2,-7 4,-14 5,-21 1,-7 1,-13 1,-19 0,-8 -1,-15 -3,-19 -3,-4 -7,-5 -12,-5 -6,0 -12,3 -17,10 -5,7 -9,17 -12,31 -4,15 -5,27 -5,38l0 0zm12 36c-9,0 -17,-2 -23,-5 -7,-3 -12,-8 -16,-15 -3,-7 -5,-15 -5,-25 0,-3 0,-7 1,-12 0,-6 1,-11 3,-17 2,-7 4,-13 7,-19 3,-6 6,-11 10,-15 4,-5 8,-8 13,-11 4,-3 9,-5 15,-7 6,-2 13,-3 20,-3 10,0 18,2 25,6 6,4 11,9 14,16 3,7 5,15 5,24 0,11 -2,22 -5,33 -4,11 -8,20 -14,28 -7,8 -14,13 -22,17 -8,3 -18,5 -28,5l0 0zm-114 -110c-7,0 -13,4 -18,11 -5,8 -12,24 -21,50 -7,19 -14,32 -20,39 -7,7 -16,10 -25,10 -8,0 -15,-1 -21,-3l7 -32 12 0c0,10 2,14 6,14 9,0 18,-12 27,-37 11,-31 21,-51 28,-58 8,-7 17,-11 27,-11l40 0 -19 89c-1,8 -2,14 -2,18 0,3 1,6 2,7 2,1 5,2 9,3l-2 8 -47 0 22 -108 -5 0 0 0zm-198 74c0,7 1,13 4,17 2,4 6,6 11,6 3,0 6,-1 8,-2 3,-1 6,-3 8,-7 3,-3 5,-7 7,-12 2,-4 4,-10 6,-17 2,-7 3,-14 4,-21 1,-7 2,-13 2,-19 0,-8 -2,-15 -4,-19 -2,-4 -6,-5 -11,-5 -7,0 -12,3 -17,10 -5,7 -9,17 -13,31 -3,15 -5,27 -5,38l0 0zm12 36c-8,0 -16,-2 -23,-5 -6,-3 -11,-8 -15,-15 -4,-7 -6,-15 -6,-25 0,-3 1,-7 1,-12 1,-6 2,-11 3,-17 2,-7 4,-13 7,-19 3,-6 7,-11 11,-15 4,-5 8,-8 12,-11 5,-3 10,-5 15,-7 7,-2 14,-3 21,-3 9,0 18,2 24,6 7,4 12,9 15,16 3,7 5,15 5,24 0,11 -2,22 -6,33 -3,11 -8,20 -14,28 -6,8 -13,13 -21,17 -9,3 -18,5 -29,5l0 0zm-109 -90c18,4 28,16 28,34 0,16 -6,30 -18,40 -11,11 -29,16 -52,16 -15,0 -30,-2 -45,-7l8 -38 15 0c0,11 2,19 6,24 4,4 10,7 18,7 10,0 18,-4 24,-13 5,-8 8,-19 8,-32 0,-16 -8,-24 -24,-24l-22 0 4 -16 20 0c14,0 24,-5 29,-14 5,-8 8,-17 8,-26 0,-15 -6,-22 -18,-22 -14,0 -25,9 -33,29l-16 0 8 -36c20,-5 35,-8 46,-8 16,0 29,4 37,10 8,6 12,15 12,26 0,24 -14,40 -43,48l0 2 0 0zm-128 74l-12 6 -31 -51 3 -13 50 -49 10 10 -35 48 15 49 0 0zm-51 0l-11 6 -31 -51 2 -13 50 -49 10 10 -35 48 15 49 0 0z"/>
  </g>
 </g>
</svg>
